<svg id="Layer_1" data-name="Layer 1" xmlns="http://www.w3.org/2000/svg" xmlns:xlink="http://www.w3.org/1999/xlink" viewBox="0 0 802.15 282.64"><defs><style>.cls-1{fill:none;}.cls-2{clip-path:url(#clip-path);}.cls-3{fill:#d8e2e8;}.cls-4{fill:#dbe4e9;}.cls-5{fill:#dee6eb;}.cls-6{fill:#e0e8ec;}.cls-7{fill:#e3e9ed;}.cls-8{fill:#e5ebef;}.cls-9{fill:#e7ecf0;}.cls-10{fill:#e9eef1;}.cls-11{fill:#ebeff2;}.cls-12{fill:#edf0f3;}.cls-13{fill:#eef2f4;}.cls-14{fill:#f0f3f5;}.cls-15{fill:#f1f4f6;}.cls-16{fill:#f3f5f7;}.cls-17{fill:#f4f6f8;}.cls-18{fill:#f5f7f8;}.cls-19{fill:#f6f8f9;}.cls-20{fill:#f7f9fa;}.cls-21{fill:#f8fafb;}.cls-22{fill:#f9fafb;}.cls-23{fill:#fafbfc;}.cls-24{fill:#fbfcfc;}.cls-25{fill:#fcfcfd;}.cls-26{fill:#fcfdfd;}.cls-27{fill:#fdfdfe;}.cls-28{fill:#fdfefe;}.cls-29{fill:#fefefe;}.cls-30{fill:#feffff;}.cls-31{fill:#fff;}.cls-32{clip-path:url(#clip-path-2);}.cls-33{fill:#dae3e9;}.cls-34{fill:#dce4ea;}.cls-35{fill:#dde6eb;}.cls-36{fill:#dfe7ec;}.cls-37{fill:#e1e8ed;}.cls-38{fill:#e4eaee;}.cls-39{fill:#e6ebef;}.cls-40{fill:#e7edf0;}.cls-41{fill:#eaeff2;}.cls-42{fill:#ecf0f2;}.cls-43{fill:#edf1f3;}.cls-44{fill:#eff3f5;}.cls-45{fill:#f1f3f5;}.cls-46{fill:#f2f4f6;}.cls-47{fill:#f8f9fa;}.cls-48{fill:#fafcfc;}.cls-49{fill:#fbfcfd;}.cls-50{fill:#1a478f;}.cls-51{fill:#ed3894;}</style><clipPath id="clip-path" transform="translate(5.08 -254.68)"><rect class="cls-1" x="5.72" y="267.01" width="780.56" height="257.98" rx="128.99"/></clipPath><clipPath id="clip-path-2" transform="translate(5.08 -254.68)"><rect class="cls-1" x="53.16" y="308.92" width="685.67" height="174.16" rx="87.08"/></clipPath></defs><title>add to contract</title><g class="cls-2"><rect class="cls-3" x="10.79" y="12.33" width="780.56" height="257.98"/><path class="cls-3" d="M788,396v79.53h6.35q-5.82,3.17-12.11,6.22a456.07,456.07,0,0,1-56.87,22.7C683.2,518.33,633,529.56,577.3,537.32V526.69H214.7v10.63c-55.72-7.76-105.9-19-148-32.87a456.07,456.07,0,0,1-56.87-22.7q-6.28-3.06-12.11-6.22H4V316.47H-2.33q5.82-3.17,12.11-6.22a456.07,456.07,0,0,1,56.87-22.7c42.15-13.88,92.33-25.11,148-32.87v10.63H577.3V254.68c55.72,7.76,105.9,19,148.05,32.87a456.07,456.07,0,0,1,56.87,22.7q6.28,3.06,12.11,6.22H788Z" transform="translate(5.08 -254.68)"/><path class="cls-4" d="M788,396v71.08h6.19q-10.45,6.33-22.68,12.29a444.33,444.33,0,0,1-55.29,22.07c-41,13.49-89.76,24.41-143.94,32v-6.71H219.74v6.71c-54.18-7.55-103-18.47-143.94-32a444.33,444.33,0,0,1-55.29-22.07Q8.3,473.43-2.17,467.08H4V324.92H-2.17q10.46-6.33,22.68-12.29A444.33,444.33,0,0,1,75.8,290.56c41-13.49,89.76-24.41,143.94-32v6.71H572.26V258.6c54.18,7.55,103,18.47,143.94,32a444.33,444.33,0,0,1,55.29,22.07q12.21,5.94,22.68,12.29H788Z" transform="translate(5.08 -254.68)"/><path class="cls-5" d="M788,396v62.8h4.53q-4.63,3.17-9.71,6.25-10.15,6.15-22,11.94a431,431,0,0,1-53.71,21.44c-39.8,13.1-87.2,23.71-139.83,31v-2.78H224.78v2.78c-52.63-7.33-100-17.94-139.83-31A431,431,0,0,1,31.24,477q-11.86-5.78-22-11.94Q4.13,462-.51,458.8H4V333.2H-.51Q4.13,330,9.2,327q10.16-6.15,22-11.94A431,431,0,0,1,85,293.57c39.8-13.1,87.2-23.71,139.83-31v2.78H567.22v-2.78c52.63,7.33,100,17.94,139.83,31A431,431,0,0,1,760.76,315q11.87,5.78,22,11.94,5.07,3.09,9.71,6.25H788Z" transform="translate(5.08 -254.68)"/><path class="cls-6" d="M788,396v54.73h1.42c-21.61,16.82-52.87,32-91.5,44.69-77.26,25.44-184,41.17-301.9,41.17S171.36,520.86,94.1,495.42c-38.63-12.73-69.89-27.87-91.5-44.69H4V341.27H2.6c21.61-16.82,52.87-32,91.5-44.69,77.26-25.44,184-41.17,301.9-41.17s224.64,15.73,301.9,41.17c38.63,12.73,69.89,27.87,91.5,44.69H788Z" transform="translate(5.08 -254.68)"/><path class="cls-7" d="M788,396v40.54h3.42a123,123,0,0,1-13.92,12.53c-21,16.31-51.27,31-88.73,43.33C613.83,517.07,510.33,532.33,396,532.33S178.17,517.07,103.25,492.4c-37.46-12.33-67.78-27-88.73-43.33A123,123,0,0,1,.6,436.54H4V355.46H.6a123,123,0,0,1,13.92-12.53c21-16.31,51.27-31,88.73-43.33,74.92-24.67,178.42-39.93,292.75-39.93s217.83,15.26,292.75,39.93c37.46,12.33,67.78,27,88.73,43.33a123,123,0,0,1,13.92,12.53H788Z" transform="translate(5.08 -254.68)"/><ellipse class="cls-8" cx="401.08" cy="141.32" rx="401.08" ry="132.07"/><ellipse class="cls-9" cx="401.08" cy="141.32" rx="388.14" ry="127.81"/><ellipse class="cls-10" cx="401.08" cy="141.32" rx="375.2" ry="123.55"/><ellipse class="cls-11" cx="401.08" cy="141.32" rx="362.26" ry="119.29"/><ellipse class="cls-12" cx="401.08" cy="141.32" rx="349.32" ry="115.03"/><ellipse class="cls-13" cx="401.08" cy="141.32" rx="336.39" ry="110.77"/><ellipse class="cls-14" cx="401.08" cy="141.32" rx="323.45" ry="106.51"/><ellipse class="cls-15" cx="401.08" cy="141.32" rx="310.51" ry="102.25"/><ellipse class="cls-16" cx="401.08" cy="141.32" rx="297.57" ry="97.99"/><ellipse class="cls-17" cx="401.08" cy="141.32" rx="284.63" ry="93.73"/><ellipse class="cls-18" cx="401.08" cy="141.32" rx="271.7" ry="89.47"/><ellipse class="cls-19" cx="401.08" cy="141.32" rx="258.76" ry="85.21"/><ellipse class="cls-20" cx="401.08" cy="141.32" rx="245.82" ry="80.95"/><ellipse class="cls-21" cx="401.08" cy="141.32" rx="232.88" ry="76.69"/><ellipse class="cls-22" cx="401.08" cy="141.32" rx="219.94" ry="72.43"/><ellipse class="cls-23" cx="401.08" cy="141.32" rx="207.01" ry="68.17"/><ellipse class="cls-24" cx="401.08" cy="141.32" rx="194.07" ry="63.91"/><ellipse class="cls-25" cx="401.08" cy="141.32" rx="181.13" ry="59.65"/><ellipse class="cls-26" cx="401.08" cy="141.32" rx="168.19" ry="55.39"/><ellipse class="cls-27" cx="401.08" cy="141.32" rx="155.26" ry="51.13"/><ellipse class="cls-28" cx="401.08" cy="141.32" rx="142.32" ry="46.86"/><ellipse class="cls-29" cx="401.08" cy="141.32" rx="129.38" ry="42.6"/><ellipse class="cls-29" cx="401.08" cy="141.32" rx="116.44" ry="38.34"/><ellipse class="cls-30" cx="401.08" cy="141.32" rx="103.5" ry="34.08"/><ellipse class="cls-31" cx="401.08" cy="141.32" rx="90.57" ry="29.82"/><ellipse class="cls-31" cx="401.08" cy="141.32" rx="77.63" ry="25.56"/><ellipse class="cls-31" cx="401.08" cy="141.32" rx="64.69" ry="21.3"/><ellipse class="cls-31" cx="401.08" cy="141.32" rx="51.75" ry="17.04"/><ellipse class="cls-31" cx="401.08" cy="141.32" rx="38.81" ry="12.78"/><ellipse class="cls-31" cx="401.08" cy="141.32" rx="25.88" ry="8.52"/><ellipse class="cls-31" cx="401.08" cy="141.32" rx="12.94" ry="4.26"/></g><g class="cls-32"><path class="cls-3" d="M53.16,308.92v0Z" transform="translate(5.08 -254.68)"/><rect class="cls-3" x="58.24" y="54.24" width="19.05" height="174.16"/><rect class="cls-33" x="77.29" y="54.24" width="19.05" height="174.16"/><rect class="cls-34" x="96.33" y="54.24" width="19.05" height="174.16"/><rect class="cls-35" x="115.38" y="54.24" width="19.05" height="174.16"/><rect class="cls-36" x="134.42" y="54.24" width="19.05" height="174.16"/><rect class="cls-37" x="153.47" y="54.24" width="19.05" height="174.16"/><rect class="cls-7" x="172.52" y="54.24" width="19.05" height="174.16"/><rect class="cls-38" x="191.56" y="54.24" width="19.05" height="174.16"/><rect class="cls-39" x="210.61" y="54.24" width="19.05" height="174.16"/><rect class="cls-40" x="229.66" y="54.24" width="19.05" height="174.16"/><rect class="cls-10" x="248.7" y="54.24" width="19.05" height="174.16"/><rect class="cls-41" x="267.75" y="54.24" width="19.05" height="174.16"/><rect class="cls-42" x="286.8" y="54.24" width="19.05" height="174.16"/><rect class="cls-43" x="305.84" y="54.24" width="19.05" height="174.16"/><rect class="cls-13" x="324.89" y="54.24" width="19.05" height="174.16"/><rect class="cls-44" x="343.94" y="54.24" width="19.05" height="174.16"/><rect class="cls-45" x="362.98" y="54.24" width="19.05" height="174.16"/><rect class="cls-46" x="382.03" y="54.24" width="19.05" height="174.16"/><rect class="cls-16" x="401.08" y="54.24" width="19.05" height="174.16"/><rect class="cls-17" x="420.12" y="54.24" width="19.05" height="174.16"/><rect class="cls-18" x="439.17" y="54.24" width="19.05" height="174.16"/><rect class="cls-19" x="458.22" y="54.24" width="19.05" height="174.16"/><rect class="cls-20" x="477.26" y="54.24" width="19.05" height="174.16"/><rect class="cls-47" x="496.31" y="54.24" width="19.05" height="174.16"/><rect class="cls-22" x="515.35" y="54.24" width="19.05" height="174.16"/><rect class="cls-23" x="534.4" y="54.24" width="19.05" height="174.16"/><rect class="cls-48" x="553.45" y="54.24" width="19.05" height="174.16"/><rect class="cls-49" x="572.49" y="54.24" width="19.05" height="174.16"/><rect class="cls-26" x="591.54" y="54.24" width="19.05" height="174.16"/><rect class="cls-27" x="610.59" y="54.24" width="19.05" height="174.16"/><rect class="cls-28" x="629.63" y="54.24" width="19.05" height="174.16"/><rect class="cls-29" x="648.68" y="54.24" width="19.05" height="174.16"/><rect class="cls-30" x="667.73" y="54.24" width="19.05" height="174.16"/><rect class="cls-31" x="686.77" y="54.24" width="19.05" height="174.16"/><rect class="cls-31" x="705.82" y="54.24" width="19.05" height="174.16"/><rect class="cls-31" x="724.87" y="54.24" width="19.05" height="174.16"/><path class="cls-31" d="M738.84,483.08v0Z" transform="translate(5.08 -254.68)"/></g><path class="cls-31" d="M651.76,483.71H140.24a87.71,87.71,0,0,1,0-175.42H651.76a87.71,87.71,0,1,1,0,175.42ZM140.24,309.55a86.45,86.45,0,0,0,0,172.9H651.76a86.45,86.45,0,1,0,0-172.9Z" transform="translate(5.08 -254.68)"/><path class="cls-50" d="M257.81,411.11l16-35.64h6.51l16.09,35.64h-6.93L275.73,379h2.65l-13.75,32.13Zm7.38-8.25,1.78-5.19h19.25l1.78,5.19Z" transform="translate(5.08 -254.68)"/><path class="cls-50" d="M311.62,411.46a14.13,14.13,0,0,1-7.05-1.75,12.74,12.74,0,0,1-4.91-4.86,15.92,15.92,0,0,1,0-14.67,12.46,12.46,0,0,1,4.91-4.83,14.22,14.22,0,0,1,7.05-1.73,12.38,12.38,0,0,1,6.11,1.5,10.62,10.62,0,0,1,4.27,4.56,17,17,0,0,1,1.58,7.83,17.57,17.57,0,0,1-1.53,7.82,10.34,10.34,0,0,1-4.22,4.6A12.38,12.38,0,0,1,311.62,411.46Zm.76-5.44a8.2,8.2,0,0,0,4.1-1,7.65,7.65,0,0,0,2.9-3,10,10,0,0,0,0-9.08,7.7,7.7,0,0,0-2.9-2.93,8.75,8.75,0,0,0-8.2,0,7.7,7.7,0,0,0-2.9,2.93,10,10,0,0,0,0,9.08,7.65,7.65,0,0,0,2.9,3A8.2,8.2,0,0,0,312.38,406Zm8.25,5.09v-6.42l.25-7.23-.51-7.22v-16.9h6.32v37.77Z" transform="translate(5.08 -254.68)"/><path class="cls-50" d="M346.59,411.46a14.18,14.18,0,0,1-7-1.75,12.74,12.74,0,0,1-4.91-4.86,15.92,15.92,0,0,1,0-14.67,12.46,12.46,0,0,1,4.91-4.83,14.27,14.27,0,0,1,7-1.73,12.38,12.38,0,0,1,6.11,1.5,10.57,10.57,0,0,1,4.27,4.56,17,17,0,0,1,1.58,7.83,17.57,17.57,0,0,1-1.53,7.82,10.34,10.34,0,0,1-4.22,4.6A12.38,12.38,0,0,1,346.59,411.46Zm.76-5.44a8.18,8.18,0,0,0,4.1-1,7.65,7.65,0,0,0,2.9-3,9.92,9.92,0,0,0,0-9.08,7.7,7.7,0,0,0-2.9-2.93,8.75,8.75,0,0,0-8.2,0,7.7,7.7,0,0,0-2.9,2.93,10,10,0,0,0,0,9.08,7.65,7.65,0,0,0,2.9,3A8.23,8.23,0,0,0,347.35,406Zm8.25,5.09v-6.42l.25-7.23-.51-7.22v-16.9h6.32v37.77Z" transform="translate(5.08 -254.68)"/><path class="cls-50" d="M385.58,389.22v-5.09H403.7v5.09Zm13.85,22.24q-4.49,0-6.93-2.31t-2.44-6.85V377.92h6.36v24.23a4.2,4.2,0,0,0,1,3,3.59,3.59,0,0,0,2.77,1.07,5.57,5.57,0,0,0,3.56-1.12l1.78,4.53a7.36,7.36,0,0,1-2.74,1.37A12.22,12.22,0,0,1,399.43,411.46Z" transform="translate(5.08 -254.68)"/><path class="cls-50" d="M422.08,411.46a15,15,0,0,1-7.43-1.81,13.39,13.39,0,0,1-5.14-5,14.62,14.62,0,0,1,0-14.38,13.33,13.33,0,0,1,5.14-4.91,15.2,15.2,0,0,1,7.43-1.78,15.49,15.49,0,0,1,7.51,1.78,13.22,13.22,0,0,1,5.14,4.89,14.87,14.87,0,0,1,0,14.4,13.18,13.18,0,0,1-5.14,5A15.29,15.29,0,0,1,422.08,411.46Zm0-5.44a8.42,8.42,0,0,0,4.17-1,7.27,7.27,0,0,0,2.88-3,10.43,10.43,0,0,0,0-9.08,7.32,7.32,0,0,0-2.88-2.93,8.89,8.89,0,0,0-8.27,0A7.58,7.58,0,0,0,415.1,393a10.25,10.25,0,0,0,0,9.08,7.53,7.53,0,0,0,2.88,3A8.18,8.18,0,0,0,422.08,406Z" transform="translate(5.08 -254.68)"/><path class="cls-50" d="M478.94,411.61a20.72,20.72,0,0,1-7.56-1.34,18.06,18.06,0,0,1-6.06-3.82,17.53,17.53,0,0,1-4-5.83,19.63,19.63,0,0,1,0-14.66,17.18,17.18,0,0,1,4-5.83,18.42,18.42,0,0,1,6-3.82A20.73,20.73,0,0,1,479,375a20.46,20.46,0,0,1,8,1.51,15.84,15.84,0,0,1,6.11,4.45l-4.28,4a13,13,0,0,0-4.32-3.13,12.81,12.81,0,0,0-5.2-1,13.79,13.79,0,0,0-5.11.91,11.79,11.79,0,0,0-6.67,6.57,14,14,0,0,0,0,10.08,11.77,11.77,0,0,0,2.65,4,11.59,11.59,0,0,0,4,2.59,13.59,13.59,0,0,0,5.11.92,13,13,0,0,0,5.2-1,12.79,12.79,0,0,0,4.32-3.18l4.28,4.07a16.43,16.43,0,0,1-6.11,4.43A20.43,20.43,0,0,1,478.94,411.61Z" transform="translate(5.08 -254.68)"/><path class="cls-50" d="M510,411.46a15,15,0,0,1-7.43-1.81,13.39,13.39,0,0,1-5.14-5,14.62,14.62,0,0,1,0-14.38,13.33,13.33,0,0,1,5.14-4.91,15.2,15.2,0,0,1,7.43-1.78,15.46,15.46,0,0,1,7.51,1.78,13.22,13.22,0,0,1,5.14,4.89,14.87,14.87,0,0,1,0,14.4,13.18,13.18,0,0,1-5.14,5A15.26,15.26,0,0,1,510,411.46Zm0-5.44a8.42,8.42,0,0,0,4.17-1,7.21,7.21,0,0,0,2.88-3,10.43,10.43,0,0,0,0-9.08,7.26,7.26,0,0,0-2.88-2.93,8.89,8.89,0,0,0-8.27,0,7.49,7.49,0,0,0-2.87,2.93,10.17,10.17,0,0,0,0,9.08,7.44,7.44,0,0,0,2.87,3A8.2,8.2,0,0,0,510,406Z" transform="translate(5.08 -254.68)"/><path class="cls-50" d="M546.08,383.62a13,13,0,0,1,5.83,1.27,9.35,9.35,0,0,1,4,3.89,13.61,13.61,0,0,1,1.48,6.75v15.58h-6.36V396.34c0-2.41-.57-4.2-1.71-5.39a6.27,6.27,0,0,0-4.76-1.78,8.39,8.39,0,0,0-4,.91,6.29,6.29,0,0,0-2.67,2.73,9.75,9.75,0,0,0-.94,4.55v13.75h-6.36V383.92h6.05v7.33L535.64,389a9.64,9.64,0,0,1,4.15-4A13.49,13.49,0,0,1,546.08,383.62Z" transform="translate(5.08 -254.68)"/><path class="cls-50" d="M561.91,389.22v-5.09H580v5.09Zm13.85,22.24q-4.49,0-6.93-2.31t-2.44-6.85V377.92h6.36v24.23a4.24,4.24,0,0,0,1,3,3.63,3.63,0,0,0,2.78,1.07,5.55,5.55,0,0,0,3.56-1.12l1.78,4.53a7.36,7.36,0,0,1-2.74,1.37A12.22,12.22,0,0,1,575.76,411.46Z" transform="translate(5.08 -254.68)"/><path class="cls-50" d="M597.25,411.46a12.88,12.88,0,0,1-5.34-1,8.26,8.26,0,0,1-3.54-2.9,7.38,7.38,0,0,1-1.25-4.2,7.92,7.92,0,0,1,1.1-4.13,7.34,7.34,0,0,1,3.59-2.9,17.08,17.08,0,0,1,6.61-1.07h7.89v4.23h-7.43c-2.17,0-3.63.35-4.38,1a3.4,3.4,0,0,0-1.12,2.57,3.24,3.24,0,0,0,1.38,2.75,6.3,6.3,0,0,0,3.82,1,8.3,8.3,0,0,0,4.2-1.07,6,6,0,0,0,2.67-3.16l1.07,3.82a7.08,7.08,0,0,1-3.28,3.72A12.21,12.21,0,0,1,597.25,411.46Zm8.56-.35v-5.5l-.36-1.17v-9.62a5.65,5.65,0,0,0-1.68-4.36,7.31,7.31,0,0,0-5.09-1.55,14.81,14.81,0,0,0-4.51.71,11.2,11.2,0,0,0-3.74,2L587.94,387a15.1,15.1,0,0,1,5.22-2.52,23.33,23.33,0,0,1,6.28-.84c3.94,0,7,.94,9.14,2.82s3.23,4.8,3.23,8.73v15.94Z" transform="translate(5.08 -254.68)"/><path class="cls-50" d="M632.48,411.46a15.65,15.65,0,0,1-7.61-1.81,13.2,13.2,0,0,1-5.22-5,14.69,14.69,0,0,1,0-14.38,13.15,13.15,0,0,1,5.22-4.91,15.86,15.86,0,0,1,7.61-1.78,14.75,14.75,0,0,1,7,1.6,10.64,10.64,0,0,1,4.6,4.71l-4.88,2.85a7.85,7.85,0,0,0-3-2.85,8.1,8.1,0,0,0-3.79-.92,8.73,8.73,0,0,0-4.23,1,7.36,7.36,0,0,0-3,2.93,10.23,10.23,0,0,0,0,9.11,7.36,7.36,0,0,0,3,2.93,8.73,8.73,0,0,0,4.23,1,8.1,8.1,0,0,0,3.79-.92,7.85,7.85,0,0,0,3-2.85l4.88,2.85a11,11,0,0,1-4.6,4.71A14.42,14.42,0,0,1,632.48,411.46Z" transform="translate(5.08 -254.68)"/><path class="cls-50" d="M646.32,389.22v-5.09h18.12v5.09Zm13.85,22.24c-3,0-5.29-.77-6.92-2.31s-2.45-3.83-2.45-6.85V377.92h6.37v24.23a4.24,4.24,0,0,0,1,3,3.59,3.59,0,0,0,2.77,1.07,5.6,5.6,0,0,0,3.57-1.12l1.78,4.53a7.48,7.48,0,0,1-2.75,1.37A12.22,12.22,0,0,1,660.17,411.46Z" transform="translate(5.08 -254.68)"/><path class="cls-51" d="M183.1,392.37a26.69,26.69,0,0,0,9.12-20.19,27,27,0,1,0-54,0,26.69,26.69,0,0,0,9.12,20.19,39.56,39.56,0,0,0-21.66,35.24,14.47,14.47,0,0,0,14.45,14.45h50.14a14.47,14.47,0,0,0,14.45-14.45A39.57,39.57,0,0,0,183.1,392.37ZM190.31,431H140.17a3.39,3.39,0,0,1-3.38-3.39,28.45,28.45,0,1,1,56.9,0A3.39,3.39,0,0,1,190.31,431Zm-25.07-74.74a15.92,15.92,0,1,1-15.92,15.92A15.94,15.94,0,0,1,165.24,356.26Z" transform="translate(5.08 -254.68)"/><polygon class="cls-51" points="217.17 120.17 217.17 109.56 211.46 109.56 211.46 120.17 201.26 120.17 201.26 125.7 211.46 125.7 211.46 136.4 217.17 136.4 217.17 125.7 227.37 125.7 227.37 120.17 217.17 120.17"/></svg>